<mxfile host="65bd71144e">
    <diagram id="Z6ab0kMyHjaZ4Uyxmn9F" name="Page-1">
        <mxGraphModel dx="592" dy="410" grid="0" gridSize="10" guides="1" tooltips="1" connect="1" arrows="1" fold="1" page="1" pageScale="1" pageWidth="4681" pageHeight="3300" math="0" shadow="0">
            <root>
                <mxCell id="0"/>
                <mxCell id="1" parent="0"/>
                <mxCell id="2" value="«/»&lt;br&gt;&lt;b&gt;root&lt;/b&gt;" style="html=1;" parent="1" vertex="1">
                    <mxGeometry x="1498" y="185" width="111" height="50" as="geometry"/>
                </mxCell>
                <mxCell id="4" style="edgeStyle=elbowEdgeStyle;html=1;entryX=0.5;entryY=1;entryDx=0;entryDy=0;elbow=vertical;" edge="1" parent="1" source="3" target="2">
                    <mxGeometry relative="1" as="geometry"/>
                </mxCell>
                <mxCell id="3" value="&lt;font color=&quot;#ff9999&quot; style=&quot;font-size: 18px;&quot;&gt;«/template_storage»&lt;br&gt;&lt;/font&gt;&lt;b&gt;template storage root&lt;/b&gt;" style="html=1;" vertex="1" parent="1">
                    <mxGeometry x="1279" y="332" width="183" height="50" as="geometry"/>
                </mxCell>
                <mxCell id="7" style="edgeStyle=elbowEdgeStyle;elbow=vertical;html=1;exitX=0.5;exitY=0;exitDx=0;exitDy=0;entryX=0.5;entryY=1;entryDx=0;entryDy=0;startArrow=none;" edge="1" parent="1" source="8" target="3">
                    <mxGeometry relative="1" as="geometry"/>
                </mxCell>
                <mxCell id="8" value="&lt;font color=&quot;#ff9999&quot; style=&quot;font-size: 18px;&quot;&gt;«/template_storage/templates&lt;br&gt;&lt;/font&gt;&lt;br class=&quot;Apple-interchange-newline&quot;&gt;&lt;table align=&quot;center&quot; style=&quot;border: 1px solid rgb(255, 255, 255); border-collapse: collapse;&quot; cellpadding=&quot;5&quot; border=&quot;1&quot;&gt;&lt;tbody&gt;&lt;tr&gt;&lt;td style=&quot;border-collapse: collapse;&quot; border=&quot;1&quot;&gt;Method&lt;/td&gt;&lt;td&gt;GET&lt;/td&gt;&lt;/tr&gt;&lt;tr&gt;&lt;td&gt;Optional parameters&lt;/td&gt;&lt;td&gt;skip: int, limit: int, &lt;br&gt;expand: bool&amp;nbsp;&lt;/td&gt;&lt;/tr&gt;&lt;tr&gt;&lt;td&gt;Return type&lt;/td&gt;&lt;td&gt;List[TemplateRead]&lt;br&gt;&lt;/td&gt;&lt;/tr&gt;&lt;/tbody&gt;&lt;/table&gt;&lt;br&gt;Создание одного шаблона&lt;br class=&quot;Apple-interchange-newline&quot;&gt;&lt;table align=&quot;center&quot; style=&quot;border: 1px solid rgb(255, 255, 255); border-collapse: collapse;&quot; cellpadding=&quot;5&quot; border=&quot;1&quot;&gt;&lt;tbody&gt;&lt;tr&gt;&lt;td style=&quot;border-collapse: collapse;&quot; border=&quot;1&quot;&gt;Method&lt;/td&gt;&lt;td&gt;POST&lt;/td&gt;&lt;/tr&gt;&lt;tr&gt;&lt;td&gt;Payload&lt;/td&gt;&lt;td&gt;TemplateCreate&lt;/td&gt;&lt;/tr&gt;&lt;tr&gt;&lt;td&gt;Return type&lt;/td&gt;&lt;td&gt;TemplateCreateResponse&lt;/td&gt;&lt;/tr&gt;&lt;/tbody&gt;&lt;/table&gt;&lt;br&gt;Создание нескольких шаблонов&lt;br class=&quot;Apple-interchange-newline&quot;&gt;&lt;table align=&quot;center&quot; style=&quot;border: 1px solid rgb(255, 255, 255); border-collapse: collapse;&quot; cellpadding=&quot;5&quot; border=&quot;1&quot;&gt;&lt;tbody&gt;&lt;tr&gt;&lt;td style=&quot;border-collapse: collapse;&quot; border=&quot;1&quot;&gt;Method&lt;/td&gt;&lt;td&gt;POST&lt;/td&gt;&lt;/tr&gt;&lt;tr&gt;&lt;td&gt;Payload&lt;br&gt;&lt;/td&gt;&lt;td&gt;List[TemplateCreate]&lt;br&gt;&lt;/td&gt;&lt;/tr&gt;&lt;tr&gt;&lt;td&gt;Return type&lt;/td&gt;&lt;td&gt;List[TemplateCreateResponse]&lt;/td&gt;&lt;/tr&gt;&lt;/tbody&gt;&lt;/table&gt;" style="html=1;verticalAlign=top;align=center;" vertex="1" parent="1">
                    <mxGeometry x="880" y="441" width="269" height="363" as="geometry"/>
                </mxCell>
                <mxCell id="11" style="edgeStyle=elbowEdgeStyle;elbow=vertical;html=1;exitX=0.5;exitY=0;exitDx=0;exitDy=0;entryX=0.5;entryY=1;entryDx=0;entryDy=0;fontSize=18;fontColor=#FF9999;" edge="1" parent="1" source="10" target="8">
                    <mxGeometry relative="1" as="geometry"/>
                </mxCell>
                <mxCell id="10" value="&lt;font color=&quot;#ff9999&quot; style=&quot;font-size: 18px;&quot;&gt;«/template_storage/templates/search&lt;br&gt;&lt;/font&gt;&lt;br class=&quot;Apple-interchange-newline&quot;&gt;&lt;table align=&quot;center&quot; style=&quot;border: 1px solid rgb(255, 255, 255); border-collapse: collapse;&quot; cellpadding=&quot;5&quot; border=&quot;1&quot;&gt;&lt;tbody&gt;&lt;tr&gt;&lt;td style=&quot;border-collapse: collapse;&quot; border=&quot;1&quot;&gt;Method&lt;/td&gt;&lt;td&gt;GET&lt;/td&gt;&lt;/tr&gt;&lt;tr&gt;&lt;td&gt;Parameters&lt;/td&gt;&lt;td&gt;q: str&lt;/td&gt;&lt;/tr&gt;&lt;tr&gt;&lt;td&gt;Return type&lt;/td&gt;&lt;td&gt;List[TemplateRead]&lt;br&gt;&lt;/td&gt;&lt;/tr&gt;&lt;/tbody&gt;&lt;/table&gt;" style="html=1;verticalAlign=top;align=center;" vertex="1" parent="1">
                    <mxGeometry x="491" y="948" width="312" height="128" as="geometry"/>
                </mxCell>
                <mxCell id="13" style="edgeStyle=elbowEdgeStyle;elbow=vertical;html=1;exitX=0.5;exitY=0;exitDx=0;exitDy=0;entryX=0.5;entryY=1;entryDx=0;entryDy=0;fontSize=18;fontColor=#FF9999;" edge="1" parent="1" source="12" target="8">
                    <mxGeometry relative="1" as="geometry"/>
                </mxCell>
                <mxCell id="12" value="&lt;font color=&quot;#ff9999&quot; style=&quot;font-size: 18px;&quot;&gt;«/template_storage/templates/{template_id}&lt;br&gt;&lt;/font&gt;&lt;br class=&quot;Apple-interchange-newline&quot;&gt;&lt;table align=&quot;center&quot; style=&quot;border: 1px solid rgb(255, 255, 255); border-collapse: collapse;&quot; cellpadding=&quot;5&quot; border=&quot;1&quot;&gt;&lt;tbody&gt;&lt;tr&gt;&lt;td style=&quot;border-collapse: collapse;&quot; border=&quot;1&quot;&gt;Method&lt;/td&gt;&lt;td&gt;GET&lt;/td&gt;&lt;/tr&gt;&lt;tr&gt;&lt;td&gt;Return type&lt;/td&gt;&lt;td&gt;TemplateRead&lt;br&gt;&lt;/td&gt;&lt;/tr&gt;&lt;/tbody&gt;&lt;/table&gt;&lt;br class=&quot;Apple-interchange-newline&quot;&gt;&lt;table style=&quot;border: 1px solid rgb(255, 255, 255); border-collapse: collapse;&quot; align=&quot;center&quot; cellpadding=&quot;5&quot; border=&quot;1&quot;&gt;&lt;tbody&gt;&lt;tr&gt;&lt;td style=&quot;border-collapse: collapse;&quot; border=&quot;1&quot;&gt;Method&lt;/td&gt;&lt;td&gt;DELETE&lt;/td&gt;&lt;/tr&gt;&lt;tr&gt;&lt;td&gt;Return type&lt;/td&gt;&lt;td&gt;DeleteResponse&lt;/td&gt;&lt;/tr&gt;&lt;/tbody&gt;&lt;/table&gt;&lt;br class=&quot;Apple-interchange-newline&quot;&gt;&lt;table style=&quot;border: 1px solid rgb(255, 255, 255); border-collapse: collapse;&quot; align=&quot;center&quot; cellpadding=&quot;5&quot; border=&quot;1&quot;&gt;&lt;tbody&gt;&lt;tr&gt;&lt;td style=&quot;border-collapse: collapse;&quot; border=&quot;1&quot;&gt;Method&lt;/td&gt;&lt;td&gt;UPDATE&lt;/td&gt;&lt;/tr&gt;&lt;tr&gt;&lt;td&gt;Payload&lt;br&gt;&lt;/td&gt;&lt;td&gt;TemplateCreate&lt;br&gt;&lt;/td&gt;&lt;/tr&gt;&lt;tr&gt;&lt;td&gt;Return type&lt;/td&gt;&lt;td&gt;List[CreateResponse]&lt;/td&gt;&lt;/tr&gt;&lt;/tbody&gt;&lt;/table&gt;" style="html=1;verticalAlign=top;align=center;" vertex="1" parent="1">
                    <mxGeometry x="835" y="948" width="359" height="262" as="geometry"/>
                </mxCell>
                <mxCell id="15" style="edgeStyle=elbowEdgeStyle;elbow=vertical;html=1;exitX=0.5;exitY=0;exitDx=0;exitDy=0;entryX=0.5;entryY=1;entryDx=0;entryDy=0;fontSize=18;fontColor=#FF9999;" edge="1" parent="1" source="14" target="8">
                    <mxGeometry relative="1" as="geometry"/>
                </mxCell>
                <mxCell id="14" value="&lt;font color=&quot;#ff9999&quot; style=&quot;font-size: 18px;&quot;&gt;«/template_storage/templates/filter&lt;br&gt;&lt;/font&gt;&lt;br class=&quot;Apple-interchange-newline&quot;&gt;&lt;table align=&quot;center&quot; style=&quot;border: 1px solid rgb(255, 255, 255); border-collapse: collapse;&quot; cellpadding=&quot;5&quot; border=&quot;1&quot;&gt;&lt;tbody&gt;&lt;tr&gt;&lt;td style=&quot;border-collapse: collapse;&quot; border=&quot;1&quot;&gt;Method&lt;/td&gt;&lt;td&gt;GET&lt;/td&gt;&lt;/tr&gt;&lt;tr&gt;&lt;td&gt;Parameters&lt;/td&gt;&lt;td&gt;name: str, tag: TemplateTag,&lt;br&gt;create_start_dt: datetime,&lt;br&gt;create_end_dt: datetime,&lt;br&gt;update_start_dt: datetime,&lt;br&gt;update_end_dt: datetime&lt;/td&gt;&lt;/tr&gt;&lt;tr&gt;&lt;td&gt;Return type&lt;/td&gt;&lt;td&gt;List[TemplateRead]&lt;br&gt;&lt;/td&gt;&lt;/tr&gt;&lt;/tbody&gt;&lt;/table&gt;" style="html=1;verticalAlign=top;align=center;" vertex="1" parent="1">
                    <mxGeometry x="1226" y="948" width="312" height="191" as="geometry"/>
                </mxCell>
                <mxCell id="17" style="edgeStyle=elbowEdgeStyle;elbow=vertical;html=1;exitX=0.5;exitY=0;exitDx=0;exitDy=0;fontSize=18;fontColor=#FF9999;" edge="1" parent="1" source="16" target="12">
                    <mxGeometry relative="1" as="geometry"/>
                </mxCell>
                <mxCell id="16" value="&lt;font color=&quot;#ff9999&quot; style=&quot;font-size: 18px;&quot;&gt;«/template_storage/templates/{template_id}/schemas&lt;br&gt;&lt;/font&gt;&lt;br class=&quot;Apple-interchange-newline&quot;&gt;&lt;table align=&quot;center&quot; style=&quot;border: 1px solid rgb(255, 255, 255); border-collapse: collapse;&quot; cellpadding=&quot;5&quot; border=&quot;1&quot;&gt;&lt;tbody&gt;&lt;tr&gt;&lt;td style=&quot;border-collapse: collapse;&quot; border=&quot;1&quot;&gt;Method&lt;/td&gt;&lt;td&gt;GET&lt;/td&gt;&lt;/tr&gt;&lt;tr&gt;&lt;td&gt;Optional parameters&lt;/td&gt;&lt;td&gt;expand: bool&lt;/td&gt;&lt;/tr&gt;&lt;tr&gt;&lt;td&gt;Return type&lt;/td&gt;&lt;td&gt;List[SchemaRead]&lt;br&gt;&lt;/td&gt;&lt;/tr&gt;&lt;/tbody&gt;&lt;/table&gt;" style="html=1;verticalAlign=top;align=center;" vertex="1" parent="1">
                    <mxGeometry x="794.75" y="1262" width="439.5" height="128" as="geometry"/>
                </mxCell>
            </root>
        </mxGraphModel>
    </diagram>
</mxfile>